<?xml version="1.0" standalone="no"?>
<!DOCTYPE svg PUBLIC "-//W3C//DTD SVG 20010904//EN" "http://www.w3.org/TR/2001/REC-SVG-20010904/DTD/svg10.dtd">
<svg xmlns="http://www.w3.org/2000/svg" version="1.0" width="2048.000000pt" height="2048.000000pt" viewBox="0 0 2048.000000 2048.000000" preserveAspectRatio="xMidYMid meet">
<metadata>
Created by potrace 1.16, written by Peter Selinger 2001-2019
<meta name="Producer" content="Online-Convert"/></metadata>
<g transform="translate(0.000000,2048.000000) scale(0.100000,-0.100000)" fill="#000000" stroke="none">
<path d="M8832 17616 c-31 -36 -62 -122 -62 -174 0 -17 -4 -33 -9 -36 -9 -6 -13 -23 -32 -126 -22 -122 -32 -244 -32 -420 -1 -199 8 -293 29 -311 8 -6 14 -30 14 -54 0 -23 6 -55 14 -71 8 -16 20 -40 25 -54 6 -14 15 -33 21 -42 5 -10 15 -26 20 -35 6 -10 14 -27 19 -38 5 -12 16 -27 25 -34 9 -7 16 -20 16 -28 0 -16 60 -97 166 -223 92 -110 436 -441 474 -458 17 -6 30 -16 30 -21 0 -11 159 -151 180 -159 8 -3 50 -35 94 -71 43 -36 95 -74 115 -84 20 -11 64 -41 97 -68 34 -27 65 -49 68 -49 3 0 59 -40 125 -90 65 -49 122 -90 126 -90 4 0 35 -25 68 -55 34 -30 67 -55 73 -55 6 0 19 -9 29 -20 10 -11 27 -22 38 -26 12 -4 43 -24 70 -45 27 -22 55 -39 62 -39 7 0 29 -18 48 -40 19 -22 41 -40 50 -40 10 0 17 -7 17 -15 0 -17 -25 -20 -35 -5 -3 6 -15 10 -25 10 -52 0 -548 251 -827 418 -245 147 -739 483 -904 614 -209 167 -250 198 -266 198 -22 0 -73 -49 -73 -71 0 -9 -7 -33 -15 -52 -8 -20 -15 -59 -15 -86 0 -27 -4 -53 -10 -56 -22 -14 -3 -405 21 -429 5 -6 9 -27 9 -47 0 -21 5 -41 10 -44 6 -3 10 -16 10 -27 0 -28 67 -222 95 -273 28 -53 55 -96 76 -120 9 -11 25 -36 36 -55 10 -20 46 -69 79 -110 77 -94 388 -398 423 -413 30 -13 81 -50 166 -122 33 -27 67 -54 76 -60 10 -5 38 -25 63 -42 26 -18 51 -33 56 -33 5 0 40 -20 77 -44 90 -58 278 -162 496 -275 102 -54 177 -99 177 -107 0 -21 -17 -18 -141 25 -300 104 -820 320 -1069 446 -38 19 -79 35 -91 35 -12 0 -40 -19 -64 -43 -42 -41 -43 -44 -50 -128 -4 -47 -4 -110 -1 -140 14 -136 19 -165 26 -174 4 -5 10 -23 14 -40 9 -35 34 -94 51 -115 6 -8 18 -35 25 -60 14 -44 36 -80 113 -180 20 -27 37 -58 37 -68 0 -20 44 -65 73 -75 9 -4 21 -17 26 -30 5 -13 62 -68 128 -122 65 -55 147 -126 182 -158 35 -33 78 -67 95 -78 124 -73 236 -171 236 -205 0 -12 -4 -26 -10 -29 -5 -3 -10 -16 -10 -29 0 -13 -9 -31 -20 -41 -11 -10 -20 -30 -20 -45 0 -16 -11 -37 -30 -55 -16 -16 -30 -35 -30 -43 0 -8 -12 -29 -27 -48 -53 -63 -73 -92 -73 -103 0 -6 -18 -34 -40 -63 -22 -29 -56 -85 -76 -125 -19 -40 -39 -75 -45 -78 -5 -4 -22 -29 -37 -57 -39 -73 -48 -88 -61 -101 -6 -6 -11 -21 -11 -32 0 -12 -9 -30 -19 -39 -10 -10 -22 -34 -26 -54 -4 -20 -17 -54 -29 -77 -13 -22 -26 -54 -29 -70 -19 -99 -31 -142 -43 -156 -8 -8 -14 -32 -14 -52 0 -20 -4 -39 -10 -42 -5 -3 -10 -24 -10 -45 0 -21 -4 -41 -9 -44 -8 -6 -24 -188 -24 -286 0 -138 50 -401 82 -433 6 -6 11 -21 11 -33 0 -12 7 -27 15 -34 17 -14 45 -67 45 -85 0 -6 14 -24 30 -40 17 -16 30 -34 30 -40 0 -6 14 -24 30 -40 17 -16 30 -34 30 -40 0 -12 153 -155 166 -155 3 0 23 -14 43 -31 63 -53 140 -109 150 -109 6 0 27 -12 48 -26 46 -31 399 -204 418 -204 6 0 104 -44 155 -70 9 -4 30 -11 47 -14 17 -4 41 -18 53 -32 13 -13 33 -24 46 -24 26 0 90 -26 99 -40 3 -5 15 -10 25 -10 11 0 35 -9 55 -20 20 -11 42 -20 50 -20 8 0 31 -9 52 -19 21 -10 56 -27 78 -36 80 -34 357 -176 432 -221 43 -26 97 -62 120 -80 23 -19 46 -34 51 -34 5 0 17 -9 27 -20 10 -11 23 -20 30 -20 6 0 26 -16 45 -35 19 -19 38 -35 42 -35 4 0 24 -18 44 -40 20 -22 43 -40 52 -40 8 0 38 -21 67 -47 28 -27 86 -77 129 -113 111 -92 376 -394 376 -427 0 -5 27 -35 60 -68 33 -33 60 -64 60 -71 0 -6 9 -19 20 -29 11 -10 20 -26 20 -35 0 -9 14 -29 30 -45 17 -16 30 -33 30 -38 0 -5 16 -27 35 -50 19 -22 35 -48 35 -57 0 -9 11 -27 25 -40 14 -13 25 -29 25 -35 0 -7 9 -20 20 -30 11 -10 20 -22 20 -28 0 -5 22 -35 48 -66 26 -31 67 -83 92 -116 112 -153 201 -254 348 -391 160 -150 307 -278 341 -298 45 -27 89 -56 121 -81 77 -57 114 -78 358 -199 139 -69 255 -126 257 -126 3 0 38 -16 79 -35 41 -19 84 -35 94 -35 10 0 22 -3 25 -6 14 -14 224 -84 252 -84 11 0 30 -6 41 -14 21 -15 117 -45 172 -53 18 -3 35 -9 38 -14 3 -5 23 -9 44 -9 21 0 42 -4 45 -10 3 -5 23 -10 44 -10 20 0 41 -4 47 -8 14 -13 98 -30 212 -43 56 -6 105 -15 108 -20 3 -5 45 -9 94 -9 49 0 92 -4 95 -10 4 -6 132 -10 350 -10 218 0 346 4 350 10 3 6 32 10 64 10 40 0 63 5 71 15 7 8 22 15 34 15 29 0 154 30 193 47 17 7 40 13 51 13 10 0 31 9 45 20 14 11 31 20 37 20 15 0 179 87 202 107 9 8 30 22 47 31 43 24 189 152 214 187 11 17 41 55 66 85 64 76 65 78 113 190 6 14 14 33 19 42 5 10 9 28 9 41 0 13 4 27 9 32 14 15 18 339 4 356 -6 8 -14 28 -17 46 -4 17 -14 37 -22 43 -7 7 -19 31 -25 53 -6 23 -29 63 -50 88 -21 26 -39 51 -39 57 0 15 -308 335 -334 347 -12 6 -53 35 -91 66 -87 70 -322 241 -525 384 -85 60 -183 132 -216 160 -34 27 -85 69 -114 93 -29 23 -59 42 -67 42 -8 0 -40 24 -71 53 -31 29 -84 75 -117 102 -100 82 -225 199 -225 211 0 11 -62 74 -73 74 -22 0 -452 475 -467 516 -5 12 -29 47 -54 78 -25 30 -46 60 -46 65 0 5 -22 36 -50 68 -27 32 -50 63 -50 68 0 6 -20 37 -45 70 -25 33 -45 65 -45 71 0 6 -7 17 -15 24 -8 7 -15 19 -15 28 0 8 -20 38 -44 66 -43 51 -80 106 -91 136 -4 8 -13 28 -21 43 -7 16 -14 35 -14 42 0 8 -13 30 -30 48 -16 19 -30 39 -30 44 0 6 -9 18 -20 28 -11 10 -20 26 -20 35 0 9 -9 25 -20 35 -11 10 -20 23 -20 30 0 7 -9 20 -20 30 -11 10 -20 22 -20 27 0 5 -15 28 -34 51 -18 23 -36 52 -40 63 -4 12 -15 29 -26 39 -11 10 -20 23 -20 30 0 7 -9 20 -20 30 -11 10 -20 25 -20 34 0 9 -29 50 -65 91 -35 41 -64 82 -65 91 0 8 -11 26 -25 39 -14 13 -25 28 -25 33 0 5 -20 33 -45 61 -25 29 -45 60 -45 68 0 8 -11 25 -25 38 -14 13 -25 28 -25 34 0 6 -21 31 -46 57 -25 26 -51 56 -58 67 -6 11 -30 43 -53 72 -24 28 -43 60 -43 70 0 10 -7 24 -16 31 -22 18 -83 112 -104 159 -6 14 -18 32 -25 40 -21 23 -125 198 -125 210 0 6 -4 18 -9 28 -27 50 -51 111 -51 130 0 11 -4 24 -10 27 -5 3 -10 21 -10 39 0 17 -4 36 -9 42 -19 19 -39 520 -22 537 6 6 11 38 11 72 0 34 4 65 9 71 5 5 12 34 15 64 11 113 18 155 27 165 5 5 9 21 9 36 0 15 5 31 10 34 6 3 10 19 10 34 0 16 6 34 14 40 8 7 17 35 21 64 4 28 11 58 15 67 5 8 16 32 24 52 9 20 21 40 26 43 6 3 10 19 10 36 0 16 4 37 9 47 41 79 70 534 36 562 -8 7 -15 25 -15 41 0 15 -4 31 -10 34 -5 3 -10 17 -10 29 0 69 -118 254 -240 376 -47 47 -125 118 -175 158 -102 81 -389 254 -735 441 -333 181 -694 391 -1065 621 -82 51 -175 107 -205 123 -30 17 -64 38 -75 48 -11 10 -36 25 -55 33 -19 8 -46 26 -59 40 -14 14 -28 26 -32 26 -13 0 -335 226 -448 314 -56 45 -110 86 -119 91 -54 34 -602 464 -722 566 -278 238 -392 338 -565 495 -110 100 -216 198 -235 219 -71 76 -170 155 -194 155 -15 0 -36 -13 -54 -34z"/>
<path d="M2822 15777 c-18 -18 -32 -44 -32 -57 0 -13 -7 -31 -15 -40 -41 -45 -54 -765 -15 -815 4 -5 11 -39 15 -75 4 -36 10 -69 14 -75 11 -18 31 -79 31 -96 0 -9 6 -22 13 -28 8 -6 19 -30 26 -53 19 -64 48 -122 71 -143 11 -10 20 -24 20 -32 0 -16 67 -109 99 -137 11 -11 21 -24 21 -31 0 -18 318 -333 410 -405 45 -36 110 -93 144 -127 35 -35 69 -63 78 -63 9 0 21 -7 28 -15 7 -8 17 -15 23 -15 6 0 43 -27 84 -60 40 -33 76 -60 80 -60 5 0 46 -34 93 -75 47 -41 91 -75 99 -75 8 0 24 -8 35 -19 38 -34 126 -91 140 -91 8 0 27 -11 43 -24 16 -13 47 -34 69 -45 23 -12 51 -33 64 -46 13 -14 28 -25 34 -25 16 0 108 -50 132 -71 11 -11 30 -19 41 -19 11 0 26 -6 33 -14 15 -19 233 -152 433 -265 53 -30 75 -61 43 -61 -29 0 -249 82 -456 170 -434 184 -1087 525 -1445 755 -44 28 -87 54 -95 58 -8 4 -78 50 -154 102 -89 60 -149 95 -166 95 -81 0 -113 -135 -92 -390 8 -88 19 -160 27 -177 8 -15 15 -38 15 -49 0 -12 7 -35 15 -50 8 -16 18 -45 21 -64 9 -51 49 -160 73 -200 12 -19 29 -53 40 -75 10 -22 26 -46 35 -54 9 -7 16 -22 16 -32 0 -11 15 -36 33 -56 40 -46 128 -158 142 -182 22 -39 250 -281 269 -287 12 -4 59 -39 106 -78 80 -67 105 -86 140 -102 8 -4 36 -25 62 -47 25 -21 60 -46 77 -55 17 -10 115 -65 218 -124 166 -94 318 -171 478 -243 121 -54 143 -63 185 -80 25 -10 64 -27 87 -37 23 -10 47 -18 53 -18 7 0 24 -6 38 -14 15 -8 39 -17 55 -21 16 -3 27 -12 27 -22 0 -14 -9 -15 -62 -9 -34 3 -69 13 -78 21 -9 8 -33 15 -53 15 -20 0 -38 4 -41 9 -3 5 -20 11 -38 14 -18 3 -51 10 -73 16 -22 5 -62 15 -90 20 -27 6 -66 17 -85 25 -19 8 -102 35 -185 60 -82 26 -168 56 -190 66 -22 11 -48 20 -59 20 -21 0 -224 79 -475 184 -47 20 -95 36 -107 36 -13 0 -35 -15 -53 -35 -28 -32 -31 -42 -31 -103 0 -74 41 -287 59 -305 6 -6 11 -23 11 -38 0 -15 6 -32 13 -38 8 -6 19 -30 26 -53 22 -74 39 -101 126 -198 46 -52 84 -99 85 -104 0 -13 203 -216 216 -216 6 0 25 -18 43 -40 18 -22 49 -49 69 -59 20 -10 46 -28 56 -40 11 -12 23 -21 29 -21 5 0 25 -13 44 -30 18 -16 39 -30 44 -30 6 0 24 -10 40 -22 75 -59 88 -68 101 -68 8 0 50 -21 94 -46 43 -25 86 -49 94 -54 8 -5 67 -31 130 -58 273 -119 277 -122 220 -177 -16 -16 -30 -34 -30 -40 0 -6 -13 -24 -30 -40 -16 -16 -30 -37 -30 -47 0 -10 -4 -18 -10 -18 -14 0 -80 -60 -80 -74 0 -7 -13 -25 -30 -41 -16 -16 -30 -36 -30 -45 0 -9 -11 -27 -25 -40 -14 -13 -25 -28 -25 -34 0 -6 -25 -39 -55 -73 -30 -33 -55 -69 -55 -78 0 -10 -18 -39 -40 -65 -22 -26 -40 -54 -40 -61 0 -7 -18 -34 -40 -60 -22 -26 -40 -54 -40 -63 0 -8 -5 -18 -11 -21 -5 -4 -14 -17 -20 -28 -5 -12 -13 -30 -19 -39 -20 -35 -29 -54 -54 -104 -14 -28 -32 -57 -41 -64 -8 -7 -15 -23 -15 -35 0 -12 -7 -28 -15 -35 -8 -7 -15 -22 -15 -33 0 -11 -8 -39 -18 -61 -24 -52 -42 -108 -42 -128 0 -9 -7 -21 -15 -28 -8 -7 -15 -25 -15 -41 0 -15 -4 -30 -9 -33 -5 -3 -11 -23 -14 -43 -3 -21 -13 -83 -21 -138 -28 -187 -17 -523 19 -565 7 -8 16 -37 20 -65 5 -32 18 -63 36 -86 16 -20 29 -41 29 -46 0 -16 29 -70 45 -83 8 -7 15 -19 15 -27 0 -15 297 -313 312 -313 4 0 26 -20 49 -45 22 -24 51 -47 62 -51 12 -4 41 -24 64 -45 24 -22 47 -39 53 -39 6 0 26 -11 44 -25 18 -14 36 -25 40 -25 8 0 170 -104 231 -148 39 -29 180 -110 357 -206 48 -25 100 -57 115 -69 15 -13 39 -28 53 -35 42 -22 69 -38 87 -55 10 -8 47 -29 82 -46 35 -16 76 -41 90 -55 14 -14 45 -35 67 -48 39 -22 142 -97 273 -198 107 -83 223 -184 303 -265 130 -131 397 -448 398 -473 0 -7 22 -37 48 -65 26 -29 61 -72 77 -97 16 -25 48 -67 71 -95 22 -27 44 -60 48 -71 4 -12 15 -29 26 -39 11 -10 20 -26 20 -36 0 -9 16 -30 36 -46 20 -15 62 -55 92 -88 134 -143 337 -345 407 -405 177 -153 198 -170 206 -170 5 0 45 -28 90 -62 97 -76 98 -77 235 -156 119 -69 513 -264 609 -302 33 -13 67 -28 75 -35 8 -6 33 -19 55 -29 22 -9 48 -21 57 -26 10 -6 24 -10 31 -10 7 0 32 -9 55 -20 22 -11 50 -20 61 -20 11 0 23 -4 26 -10 3 -5 17 -10 30 -10 13 0 27 -4 30 -10 3 -5 15 -10 26 -10 10 0 27 -4 37 -9 9 -6 53 -22 97 -36 43 -15 84 -29 90 -33 23 -15 83 -32 138 -38 31 -4 60 -11 63 -15 3 -5 22 -9 43 -9 21 0 41 -3 44 -6 17 -18 121 -44 195 -50 45 -4 85 -11 88 -16 3 -4 27 -8 54 -8 27 0 52 -4 55 -10 3 -5 30 -10 59 -10 28 0 56 -4 62 -9 15 -14 463 -49 664 -52 117 -2 359 18 382 31 10 6 39 10 66 10 26 0 52 4 57 9 6 5 53 15 105 21 52 7 104 16 115 20 11 5 31 11 45 14 61 12 157 44 225 75 22 10 51 22 65 26 14 4 32 13 40 20 8 7 32 18 52 24 21 7 40 17 43 22 4 5 14 9 24 9 10 0 24 6 30 14 7 8 31 24 54 36 54 28 222 174 285 248 86 100 142 172 152 195 6 12 21 40 35 62 13 22 24 52 25 66 0 15 6 32 14 38 16 13 29 66 47 184 9 58 9 91 1 130 -6 29 -14 81 -17 115 -3 40 -14 81 -29 110 -14 26 -42 81 -62 122 -43 89 -92 154 -209 277 -100 107 -386 349 -525 445 -52 36 -113 80 -135 98 -22 17 -116 84 -210 147 -356 242 -857 628 -1029 793 -151 145 -414 444 -447 508 -8 15 -37 54 -66 86 -29 33 -53 64 -53 70 0 5 -11 21 -23 35 -13 15 -30 42 -37 61 -7 19 -27 51 -44 70 -45 50 -76 97 -76 114 0 8 -4 17 -9 20 -5 3 -22 32 -39 65 -33 64 -94 152 -149 214 -18 20 -33 44 -33 53 0 8 -22 41 -50 73 -27 32 -50 67 -50 78 0 11 -7 26 -15 33 -8 7 -15 18 -15 24 0 7 -11 23 -25 36 -14 13 -25 31 -25 41 0 10 -25 39 -55 65 -30 26 -55 55 -55 65 0 9 -7 22 -16 30 -8 7 -22 26 -31 43 -9 17 -36 54 -59 82 -24 28 -44 56 -44 62 0 6 -18 32 -40 58 -23 25 -43 59 -46 74 -4 15 -32 52 -66 86 -55 54 -104 112 -166 197 -13 18 -36 46 -51 62 -90 98 -431 564 -431 590 0 7 -5 17 -10 20 -19 12 -119 192 -151 271 -62 152 -78 271 -79 555 0 173 3 222 15 245 8 16 15 47 15 69 0 48 28 203 41 227 5 10 9 33 9 52 0 19 4 37 9 40 5 3 12 27 16 53 4 25 13 56 20 67 8 12 17 41 20 66 4 25 10 54 15 65 11 25 19 61 33 152 7 39 15 75 20 79 11 11 9 382 -3 389 -5 3 -10 16 -10 28 0 12 -8 45 -19 74 -72 198 -163 334 -326 491 -152 146 -274 219 -710 424 -377 178 -822 392 -910 439 -382 202 -882 490 -1175 675 -604 381 -1096 720 -1418 976 -160 128 -482 376 -525 404 -18 12 -58 45 -89 73 -31 28 -62 51 -71 51 -8 0 -20 7 -27 15 -26 32 -140 105 -162 105 -14 0 -38 -14 -56 -33z"/>
</g>
</svg>
